{
    "asset" : {
        "generator" : "Khronos glTF Blender I/O v1.7.33",
        "version" : "2.0"
    },
    "scene" : 0,
    "scenes" : [
        {
            "name" : "Scene",
            "nodes" : [
                0,
                1
            ]
        }
    ],
    "nodes" : [
        {
            "mesh" : 0,
            "name" : "Sheep",
            "rotation" : [
                0,
                0.6214838624000549,
                0,
                0.7834269404411316
            ],
            "scale" : [
                0.05554887652397156,
                0.05554887652397156,
                0.05554887652397156
            ],
            "translation" : [
                0.31932973861694336,
                0.11670231819152832,
                0.2735017240047455
            ]
        },
        {
            "mesh" : 1,
            "name" : "Wool",
            "translation" : [
                0,
                0.00335041549988091,
                0
            ]
        }
    ],
    "materials" : [
        {
            "doubleSided" : true,
            "name" : "Material",
            "pbrMetallicRoughness" : {
                "baseColorTexture" : {
                    "index" : 0
                },
                "metallicFactor" : 0,
                "roughnessFactor" : 0.5
            }
        },
        {
            "doubleSided" : true,
            "name" : "Material2",
            "pbrMetallicRoughness" : {
                "baseColorTexture" : {
                    "index" : 1
                },
                "metallicFactor" : 0,
                "roughnessFactor" : 0.5
            }
        }
    ],
    "meshes" : [
        {
            "name" : "Sheep",
            "primitives" : [
                {
                    "attributes" : {
                        "POSITION" : 0,
                        "NORMAL" : 1,
                        "TEXCOORD_0" : 2
                    },
                    "indices" : 3,
                    "material" : 0
                }
            ]
        },
        {
            "name" : "Wool",
            "primitives" : [
                {
                    "attributes" : {
                        "POSITION" : 4,
                        "NORMAL" : 5,
                        "TEXCOORD_0" : 6
                    },
                    "indices" : 7,
                    "material" : 1
                }
            ]
        }
    ],
    "textures" : [
        {
            "sampler" : 0,
            "source" : 0
        },
        {
            "sampler" : 0,
            "source" : 1
        }
    ],
    "images" : [
        {
            "bufferView" : 4,
            "mimeType" : "image/png",
            "name" : "Sheep_DIFF"
        },
        {
            "bufferView" : 9,
            "mimeType" : "image/png",
            "name" : "Wool_DIFF"
        }
    ],
    "accessors" : [
        {
            "bufferView" : 0,
            "componentType" : 5126,
            "count" : 1446,
            "max" : [
                11.43899917602539,
                2.7322843074798584,
                1.868165373802185
            ],
            "min" : [
                -1.1425129175186157,
                -0.2654702663421631,
                -13.424171447753906
            ],
            "type" : "VEC3"
        },
        {
            "bufferView" : 1,
            "componentType" : 5126,
            "count" : 1446,
            "type" : "VEC3"
        },
        {
            "bufferView" : 2,
            "componentType" : 5126,
            "count" : 1446,
            "type" : "VEC2"
        },
        {
            "bufferView" : 3,
            "componentType" : 5123,
            "count" : 2052,
            "type" : "SCALAR"
        },
        {
            "bufferView" : 5,
            "componentType" : 5126,
            "count" : 1200,
            "max" : [
                0.866025447845459,
                0.2770114541053772,
                1
            ],
            "min" : [
                -0.866025447845459,
                -0.10000002384185791,
                -1
            ],
            "type" : "VEC3"
        },
        {
            "bufferView" : 6,
            "componentType" : 5126,
            "count" : 1200,
            "type" : "VEC3"
        },
        {
            "bufferView" : 7,
            "componentType" : 5126,
            "count" : 1200,
            "type" : "VEC2"
        },
        {
            "bufferView" : 8,
            "componentType" : 5123,
            "count" : 1968,
            "type" : "SCALAR"
        }
    ],
    "bufferViews" : [
        {
            "buffer" : 0,
            "byteLength" : 17352,
            "byteOffset" : 0
        },
        {
            "buffer" : 0,
            "byteLength" : 17352,
            "byteOffset" : 17352
        },
        {
            "buffer" : 0,
            "byteLength" : 11568,
            "byteOffset" : 34704
        },
        {
            "buffer" : 0,
            "byteLength" : 4104,
            "byteOffset" : 46272
        },
        {
            "buffer" : 0,
            "byteLength" : 5461,
            "byteOffset" : 50376
        },
        {
            "buffer" : 0,
            "byteLength" : 14400,
            "byteOffset" : 55840
        },
        {
            "buffer" : 0,
            "byteLength" : 14400,
            "byteOffset" : 70240
        },
        {
            "buffer" : 0,
            "byteLength" : 9600,
            "byteOffset" : 84640
        },
        {
            "buffer" : 0,
            "byteLength" : 3936,
            "byteOffset" : 94240
        },
        {
            "buffer" : 0,
            "byteLength" : 224372,
            "byteOffset" : 98176
        }
    ],
    "samplers" : [
        {
            "magFilter" : 9729,
            "minFilter" : 9987
        }
    ],
    "buffers" : [
        {
            "byteLength" : 322548,
            "uri" : "data:application/octet-stream;base64,"
        }
    ]
}
